#define battery_left_width 16
#define battery_left_height 16
static unsigned char battery_left_bits[] = {
   0x00, 0xe0, 0x00, 0xe0, 0x00, 0xe0, 0x00, 0xe0, 0x00, 0xe0, 0x00, 0xfc,
   0x00, 0xfc, 0x00, 0xfc, 0x00, 0xfc, 0x00, 0xfc, 0x00, 0xfc, 0x00, 0xe0,
   0x00, 0xe0, 0x00, 0xe0, 0x00, 0xe0, 0x00, 0xe0 };
