#define battery_right_width 16
#define battery_right_height 16
static unsigned char battery_right_bits[] = {
   0x07, 0x00, 0x07, 0x00, 0x07, 0x00, 0x07, 0x00, 0x07, 0x00, 0x07, 0x00,
   0x07, 0x00, 0x07, 0x00, 0x07, 0x00, 0x07, 0x00, 0x07, 0x00, 0x07, 0x00,
   0x07, 0x00, 0x07, 0x00, 0x07, 0x00, 0x07, 0x00 };
