#define cpu_width 16
#define cpu_height 16
static unsigned char cpu_bits[] = {
   0x00, 0x00, 0x50, 0x05, 0x50, 0x05, 0xf8, 0x0f, 0xfe, 0x3f, 0xf8, 0x0f,
   0x3e, 0x3e, 0xb8, 0x0e, 0x3e, 0x3e, 0xf8, 0x0f, 0xfe, 0x3f, 0xf8, 0x0f,
   0x50, 0x05, 0x50, 0x05, 0x00, 0x00, 0x00, 0x00 };
