#define disk_width 16
#define disk_height 16
static unsigned char disk_bits[] = {
   0x00, 0x00, 0xfc, 0x3f, 0xca, 0x23, 0xc9, 0x23, 0xc9, 0x23, 0xf9, 0x23,
   0x01, 0x20, 0x01, 0x20, 0x01, 0x20, 0xf9, 0x27, 0x09, 0x24, 0xf9, 0x27,
   0x09, 0x24, 0xf9, 0x27, 0xff, 0x3f, 0x00, 0x00 };
