#define mail_width 16
#define mail_height 16
static unsigned char mail_bits[] = {
   0x00, 0x00, 0x00, 0x00, 0xff, 0x7f, 0xff, 0x7f, 0x07, 0x70, 0x1f, 0x7c,
   0x33, 0x66, 0xe3, 0x63, 0x83, 0x60, 0x03, 0x60, 0x03, 0x60, 0x03, 0x60,
   0xff, 0x7f, 0xff, 0x7f, 0x00, 0x00, 0x00, 0x00 };
