#define power_plugged_width 16
#define power_plugged_height 16
static unsigned char power_plugged_bits[] = {
   0x00, 0x00, 0x80, 0x03, 0xe0, 0x03, 0xf0, 0x7f, 0xf8, 0x7f, 0xf8, 0x03,
   0xfc, 0x03, 0xff, 0x03, 0xff, 0x03, 0xf9, 0x03, 0xf8, 0x7f, 0xf0, 0x7f,
   0xe0, 0x03, 0x80, 0x03, 0x00, 0x00, 0x00, 0x00 };
