#define sound_off_width 16
#define sound_off_height 16
static unsigned char sound_off_bits[] = {
   0x00, 0x00, 0x01, 0x20, 0x02, 0x11, 0x84, 0x09, 0xc8, 0x05, 0xf0, 0x03,
   0xf8, 0x01, 0xf8, 0x01, 0xf8, 0x01, 0xf8, 0x01, 0xf0, 0x03, 0xc8, 0x05,
   0x84, 0x09, 0x02, 0x11, 0x01, 0x20, 0x00, 0x00 };
