#define sound_on_width 16
#define sound_on_height 16
static unsigned char sound_on_bits[] = {
   0x00, 0x00, 0x00, 0x00, 0x80, 0x00, 0xc0, 0x0c, 0xe0, 0x10, 0xf0, 0x22,
   0xfc, 0x44, 0xfc, 0x44, 0xfc, 0x44, 0xfc, 0x44, 0xf0, 0x22, 0xe0, 0x10,
   0xc0, 0x0c, 0x80, 0x00, 0x00, 0x00, 0x00, 0x00 };
