#define sound_off_width 16
#define sound_off_height 16
static unsigned char sound_off_bits[] = {
   0x00, 0x00, 0x02, 0x40, 0x04, 0x22, 0x08, 0x13, 0x90, 0x0b, 0xe0, 0x07,
   0xf0, 0x03, 0xf0, 0x03, 0xf0, 0x03, 0xf0, 0x03, 0xe0, 0x07, 0x90, 0x0b,
   0x08, 0x13, 0x04, 0x22, 0x02, 0x40, 0x00, 0x00 };
