#define sound_on_width 16
#define sound_on_height 16
static unsigned char sound_on_bits[] = {
   0x00, 0x00, 0x00, 0x00, 0x20, 0x00, 0x30, 0x03, 0x38, 0x04, 0xbc, 0x08,
   0x3f, 0x11, 0x3f, 0x11, 0x3f, 0x11, 0x3f, 0x11, 0xbc, 0x08, 0x38, 0x04,
   0x30, 0x03, 0x20, 0x00, 0x00, 0x00, 0x00, 0x00 };
